<?xml version="1.0" encoding="UTF-8"?>
<svg version="1.1" xmlns="http://www.w3.org/2000/svg" width="611" height="294">
<path d="M0 0 C1.9157461 1.51685102 3.81158687 3.05915516 5.6875 4.625 C6.19120117 5.03975586 6.69490234 5.45451172 7.21386719 5.88183594 C17.9678291 14.83112547 26.320418 25.0962075 30.6875 38.625 C31.12578125 38.17769531 31.5640625 37.73039062 32.015625 37.26953125 C42.48195337 27.29248246 56.06223794 24.10920483 70.19921875 24.375 C88.33232861 25.67457338 106.53105931 32.18637891 119.16015625 45.7109375 C127.26090679 55.86277321 129.89549507 65.70226203 128.6875 78.625 C127.84119798 81.71584217 126.81740537 84.57008322 125.5625 87.515625 C124.55978086 89.5522849 124.55978086 89.5522849 124.6875 91.625 C125.43773437 91.65078125 126.18796875 91.6765625 126.9609375 91.703125 C141.56169381 92.51223492 152.21879572 98.57349688 162.25 109.1875 C166.28555773 113.8560864 169.60132852 118.89263409 172.93969727 124.06518555 C179.0524533 133.6732133 179.0524533 133.6732133 187.6875 140.625 C187.6875 166.695 187.6875 192.765 187.6875 219.625 C185.7075 219.295 183.7275 218.965 181.6875 218.625 C181.15382813 219.50800781 180.62015625 220.39101562 180.0703125 221.30078125 C169.39405199 238.63665959 155.88524125 252.72407826 135.421875 257.76953125 C119.45048393 261.05849952 101.88104246 259.3965747 88.0703125 250.39453125 C81.72876101 245.68514957 75.46830976 240.67105456 71.6875 233.625 C71.6875 232.965 71.6875 232.305 71.6875 231.625 C68.32197113 234.88480545 65.3595637 238.23026075 62.5 241.9375 C49.97398166 257.28135827 33.10127854 265.23465254 13.6875 267.625 C-8.0178891 268.78380927 -32.12898846 265.0177669 -49.03515625 250.24609375 C-50.77299757 248.64827993 -52.4913688 247.02886116 -54.18359375 245.3828125 C-56.23791912 243.3066507 -56.23791912 243.3066507 -59.3125 243.625 C-60.7264811 244.90399507 -60.7264811 244.90399507 -62.125 246.625 C-65.45505305 250.11126023 -69.15080051 252.55907198 -73.3125 254.9375 C-74.18418823 255.44313477 -74.18418823 255.44313477 -75.07348633 255.95898438 C-84.49249163 261.19543825 -94.9072857 262.26645808 -105.4140625 259.9375 C-110.93544 258.07111887 -115.6229707 255.39538937 -120.33984375 251.9921875 C-122.26563476 250.65748086 -124.19465199 249.61996215 -126.3125 248.625 C-126.89644531 249.36943359 -126.89644531 249.36943359 -127.4921875 250.12890625 C-137.32965027 262.07439676 -150.90545274 269.10716673 -166.3125 270.625 C-183.57207993 271.97828431 -200.11982053 267.42129075 -213.6875 256.5 C-215.56981917 254.88348383 -217.44429189 253.25780387 -219.3125 251.625 C-220.448546 250.66952202 -221.58665983 249.71649859 -222.7265625 248.765625 C-230.31439814 242.40437877 -237.43722206 235.75283917 -244.3125 228.625 C-242.4375 223.875 -242.4375 223.875 -241.3125 221.625 C-241.97636719 221.3671875 -242.64023438 221.109375 -243.32421875 220.84375 C-245.58066072 219.92347563 -247.79926502 218.96981444 -250.01953125 217.96875 C-250.68919922 217.66839844 -251.35886719 217.36804688 -252.04882812 217.05859375 C-253.42320197 216.44057804 -254.79564028 215.81823822 -256.16601562 215.19140625 C-265.76274342 210.91190849 -276.02592491 208.55631455 -286.39453125 211.5 C-294.9635071 214.91411358 -302.78640513 219.77583956 -310.5703125 224.67578125 C-325.76253916 234.21132777 -340.41011972 240.63067332 -358.546875 236.97265625 C-373.73443474 231.9744904 -380.5550497 220.22038136 -387.5 206.75 C-387.91628662 205.91694336 -388.33257324 205.08388672 -388.76147461 204.22558594 C-389.16374268 203.4318457 -389.56601074 202.63810547 -389.98046875 201.8203125 C-390.33391357 201.10891113 -390.6873584 200.39750977 -391.05151367 199.66455078 C-394.04033141 194.83036232 -397.3213633 192.94257731 -402.609375 191.046875 C-403.81464844 190.60859375 -405.01992188 190.1703125 -406.26171875 189.71875 C-407.52855947 189.27058913 -408.79548769 188.82267553 -410.0625 188.375 C-411.34542335 187.91248686 -412.62798003 187.44895531 -413.91015625 186.984375 C-417.0408099 185.85451504 -420.17482373 184.7351766 -423.3125 183.625 C-422.3125 181.625 -422.3125 181.625 -419.74316406 180.66357422 C-416.68565315 179.78269282 -413.62819878 178.90291531 -410.56103516 178.05615234 C-408.60669529 177.51229867 -406.66120604 176.94273524 -404.71484375 176.37109375 C-392.03145338 172.83425455 -381.85707269 172.04212781 -369.75 177.5625 C-368.04112653 178.30254319 -366.33151828 179.04089254 -364.62109375 179.77734375 C-363.88689209 180.10726318 -363.15269043 180.43718262 -362.39624023 180.77709961 C-354.61862129 183.94191163 -346.03264315 183.46692293 -338.25390625 180.55859375 C-335.60946475 179.28692067 -333.50756595 177.55399735 -331.3125 175.625 C-330.6525 175.625 -329.9925 175.625 -329.3125 175.625 C-329.08949219 175.11324219 -328.86648438 174.60148438 -328.63671875 174.07421875 C-326.77396832 170.62895467 -324.45870533 167.57675424 -322.125 164.4375 C-321.62959717 163.76912109 -321.13419434 163.10074219 -320.6237793 162.41210938 C-319.63633262 161.08286042 -318.64719607 159.75486489 -317.65625 158.42822266 C-316.53295743 156.92083913 -315.42128694 155.404804 -314.3125 153.88671875 C-305.90481553 142.61808609 -294.99246117 135.09009488 -280.83203125 132.87109375 C-269.25213557 131.74003417 -259.21815262 133.68684767 -248.3125 137.625 C-248.21710938 136.9546875 -248.12171875 136.284375 -248.0234375 135.59375 C-244.11920481 119.29036076 -232.37256649 105.40804296 -218.57421875 96.4921875 C-206.61544571 89.646327 -193.82917171 86.63009092 -180.3125 84.625 C-180.4775 83.75875 -180.6425 82.8925 -180.8125 82 C-183.65318345 60.80086981 -177.49003357 41.4937824 -165 24.4375 C-163.45579289 22.48538912 -161.89255467 20.54821079 -160.3125 18.625 C-159.88565918 18.09277832 -159.45881836 17.56055664 -159.01904297 17.01220703 C-149.89471309 5.639322 -140.08697233 -4.10089654 -127.3125 -11.375 C-126.42433594 -11.89835938 -125.53617187 -12.42171875 -124.62109375 -12.9609375 C-86.38902363 -33.91147384 -34.11041361 -24.86013195 0 0 Z " fill="#15495A" transform="translate(423.3125,23.375)"/>
<path d="M0 0 C1.9157461 1.51685102 3.81158687 3.05915516 5.6875 4.625 C6.19120117 5.03975586 6.69490234 5.45451172 7.21386719 5.88183594 C17.9678291 14.83112547 26.320418 25.0962075 30.6875 38.625 C31.12578125 38.17769531 31.5640625 37.73039062 32.015625 37.26953125 C42.48195337 27.29248246 56.06223794 24.10920483 70.19921875 24.375 C88.33232861 25.67457338 106.53105931 32.18637891 119.16015625 45.7109375 C127.26090679 55.86277321 129.89549507 65.70226203 128.6875 78.625 C127.84119798 81.71584217 126.81740537 84.57008322 125.5625 87.515625 C124.55978086 89.5522849 124.55978086 89.5522849 124.6875 91.625 C125.43773437 91.65078125 126.18796875 91.6765625 126.9609375 91.703125 C141.56169381 92.51223492 152.21879572 98.57349688 162.25 109.1875 C166.28555773 113.8560864 169.60132852 118.89263409 172.93969727 124.06518555 C179.0524533 133.6732133 179.0524533 133.6732133 187.6875 140.625 C187.6875 143.925 187.6875 147.225 187.6875 150.625 C176.84771988 147.49004201 171.22207209 139.30581044 165.25 130.3125 C156.75513961 117.56031153 148.74799505 106.70253833 133.6875 101.625 C126.52453702 100.26830635 120.85060299 101.9894214 114.20703125 104.66015625 C110.9386916 105.91175298 108.18069454 106.47635342 104.6875 106.625 C102.6875 104.625 102.6875 104.625 102.125 102.4375 C103.20052784 97.0598608 108.36257732 93.76504975 112.375 90.3125 C118.02356745 83.74794864 119.43325845 76.31732267 119.1328125 67.8046875 C117.95360272 59.3847159 113.25581007 52.82597704 106.6875 47.625 C93.11451533 38.14219085 76.30165126 32.83917939 59.6875 34.625 C50.12489736 36.55716971 43.2050006 39.98201327 36.4375 46.9375 C31.08381547 55.15922982 29.69681221 63.3399554 28.30078125 72.90625 C27.6875 76.625 27.6875 76.625 26.6875 77.625 C24.1875 77.75 24.1875 77.75 21.6875 77.625 C21.3575 77.295 21.0275 76.965 20.6875 76.625 C20.78434954 75.03791715 20.94426814 73.45473029 21.125 71.875 C22.76105671 53.41408981 23.26578946 38.70333238 11.29296875 23.60546875 C-6.67820759 3.04773629 -32.37563258 -9.54418672 -59.3125 -13.375 C-74.12044408 -14.17099634 -88.91699594 -14.15492377 -103.3125 -10.375 C-104.18777344 -10.18164062 -105.06304687 -9.98828125 -105.96484375 -9.7890625 C-118.57531682 -6.64155382 -129.84101785 0.98112308 -139.3125 9.625 C-140.00601562 10.24890625 -140.69953125 10.8728125 -141.4140625 11.515625 C-156.23907451 25.5728077 -171.16782081 47.13688158 -171.74389648 68.11816406 C-171.76813489 77.08055535 -170.55651197 83.58709854 -166.3125 91.625 C-165.78140625 92.77742188 -165.2503125 93.92984375 -164.703125 95.1171875 C-156.57050596 112.69642952 -144.23563715 124.1972198 -126.3125 131.625 C-119.18355834 134.08609318 -111.88387442 136.28617774 -104.3125 136.625 C-103.22324219 136.69976562 -102.13398438 136.77453125 -101.01171875 136.8515625 C-89.24480264 137.30095226 -78.59770831 134.77099314 -67.3125 131.625 C-66.44238281 131.39651367 -65.57226562 131.16802734 -64.67578125 130.93261719 C-54.5475742 128.14242521 -45.82835566 122.2005194 -40.4921875 112.96484375 C-39.90824219 111.80662109 -39.90824219 111.80662109 -39.3125 110.625 C-38.69761719 109.48224609 -38.69761719 109.48224609 -38.0703125 108.31640625 C-33.2050589 97.56251813 -33.4727962 83.3837892 -37.4375 72.375 C-41.72185079 62.96149686 -47.59942907 55.28842156 -57.37036133 51.24682617 C-60.6073627 50.21041605 -63.82507012 50.13767122 -67.1875 50.1875 C-67.88713867 50.19289795 -68.58677734 50.1982959 -69.30761719 50.20385742 C-77.02382836 50.43012092 -82.37680625 52.876445 -88.3125 57.625 C-88.9725 57.625 -89.6325 57.625 -90.3125 57.625 C-90.745625 58.5221875 -90.745625 58.5221875 -91.1875 59.4375 C-92.3125 61.625 -92.3125 61.625 -94.3125 64.625 C-94.6282994 66.80686947 -94.6282994 66.80686947 -94.5625 69.125 C-94.56765625 69.8984375 -94.5728125 70.671875 -94.578125 71.46875 C-94.43988062 73.92013844 -94.43988062 73.92013844 -92.3125 76.625 C-92.6875 79.3125 -92.6875 79.3125 -93.3125 81.625 C-94.9625 81.625 -96.6125 81.625 -98.3125 81.625 C-102.47801893 75.76723901 -103.48746214 70.76753298 -102.3125 63.625 C-101.09180798 60.53005962 -99.43644889 58.17049599 -97.3125 55.625 C-96.56806641 54.69880859 -96.56806641 54.69880859 -95.80859375 53.75390625 C-90.00323059 47.24910174 -81.13618764 42.92131918 -72.43359375 42.38671875 C-60.64063477 42.10226166 -52.47222073 42.89116342 -43.125 50.6875 C-32.82309801 60.60126126 -27.32820031 72.46115679 -26.89379883 86.75537109 C-26.81770999 96.85245827 -28.51021779 105.26807943 -32.3125 114.625 C-31.20068359 114.4084375 -31.20068359 114.4084375 -30.06640625 114.1875 C-8.65315004 110.41331531 14.10975549 111.8237205 32.5 124.375 C41.09145916 131.00093109 46.77563936 139.10347687 49.6875 149.625 C51.16578589 161.40905037 48.469664 172.87353038 41.6875 182.625 C34.31709738 192.0602625 25.48942747 199.68857596 13.5625 202.3125 C1.93638392 203.25009001 -6.66281151 203.19669342 -16.125 195.875 C-21.18857093 191.24612078 -23.75842149 185.13678211 -24.5859375 178.3984375 C-24.88055466 171.44093994 -23.27168498 166.36581821 -19.3125 160.625 C-15.26487461 156.252119 -11.08806262 152.87972982 -5.03515625 152.32421875 C-3.82730469 152.32035156 -2.61945313 152.31648437 -1.375 152.3125 C-0.16972656 152.29574219 1.03554688 152.27898437 2.27734375 152.26171875 C7.05988779 152.77119939 9.56675184 154.56483282 13 157.8125 C15.23840345 161.54317242 15.39411171 164.37671252 14.6875 168.625 C12.9286217 172.7907644 10.81760412 174.80007027 6.6875 176.625 C3.5 176.9375 3.5 176.9375 0.6875 176.625 C0.0275 175.965 -0.6325 175.305 -1.3125 174.625 C-0.9375 172 -0.9375 172 -0.3125 169.625 C3.1525 168.635 3.1525 168.635 6.6875 167.625 C6.6875 165.645 6.6875 163.665 6.6875 161.625 C2.47965225 159.52107613 -2.74198709 160.09924165 -7.3125 160.625 C-11.02074814 162.28904946 -12.92011117 165.04949639 -15.1875 168.375 C-17.20050658 174.19035235 -17.20812235 179.29873291 -14.625 184.9375 C-11.43042107 190.57565159 -7.45747028 192.88613551 -1.3125 194.625 C9.83885733 195.76127575 18.23455037 193.96389233 27.375 187.5625 C35.41349059 180.91829627 40.85952854 171.14919063 42 160.78515625 C42.37798959 151.60709641 40.37305595 143.551656 34.5625 136.3125 C23.8736337 125.16781851 8.35087678 120.81498191 -6.64111328 120.2890625 C-19.02003271 120.0784919 -32.72611799 121.72948604 -43.3125 128.625 C-44.14652344 129.1096875 -44.98054688 129.594375 -45.83984375 130.09375 C-57.52430419 137.5665606 -65.74448746 150.21632887 -69.5703125 163.453125 C-73.88773829 184.35315768 -68.67756003 205.39976945 -58.3125 223.625 C-56.78902437 225.90687248 -55.22377708 228.03161978 -53.46875 230.13671875 C-52.3125 231.625 -52.3125 231.625 -51.4375 234.1875 C-46.90713032 244.00330097 -32.74364343 249.87095484 -23.3125 253.625 C-3.26758452 260.07648518 16.75537111 259.76191035 35.9375 250.875 C51.18444915 242.79472602 61.32828943 230.01583633 68.6875 214.625 C67.97464844 214.2125 67.26179688 213.8 66.52734375 213.375 C58.43920283 208.49816671 50.89867022 202.88072593 47.6875 193.625 C47.46861917 190.6054394 47.50627513 187.64541446 47.6875 184.625 C50.0625 184 50.0625 184 52.6875 183.625 C54.97815959 185.91565959 55.04544815 186.77268889 55.5625 189.875 C56.67251834 195.08290561 58.17459693 198.90186647 62.73828125 202.03125 C73.56068829 208.28823827 84.86076265 209.32519047 97.07421875 206.97265625 C100.0683588 206.04123485 102.83937713 204.93591683 105.6875 203.625 C106.73164062 203.150625 107.77578125 202.67625 108.8515625 202.1875 C115.90088534 198.68807482 121.67809396 194.4631768 127.37475586 189.09350586 C128.91015625 187.6875 128.91015625 187.6875 131.6875 185.625 C134.05859375 185.8125 134.05859375 185.8125 135.6875 186.625 C136.0175 188.275 136.3475 189.925 136.6875 191.625 C119.94692464 206.752696 102.91943739 216.69133608 79.84375 215.80078125 C78.8021875 215.74277344 77.760625 215.68476563 76.6875 215.625 C77.9473856 226.02991729 82.26548093 233.31409695 90.33984375 239.98828125 C103.19866294 248.95308198 116.41939379 250.10203219 131.6875 248.625 C145.97136114 245.75979183 158.00803675 235.92703487 166.6875 224.625 C167.10322266 224.09068359 167.51894531 223.55636719 167.94726562 223.00585938 C170.9219937 219.05610662 173.24484594 215.38100241 174.6875 210.625 C173.74699528 207.10794979 172.27184563 204.63234147 170.3203125 201.5703125 C167.60675261 196.67551787 167.80431492 192.04698838 168.6875 186.625 C170.41507238 180.62395911 174.22763009 175.70845171 179.6875 172.625 C182.3275 171.965 184.9675 171.305 187.6875 170.625 C187.6875 186.795 187.6875 202.965 187.6875 219.625 C185.7075 219.295 183.7275 218.965 181.6875 218.625 C181.15382813 219.50800781 180.62015625 220.39101562 180.0703125 221.30078125 C169.39405199 238.63665959 155.88524125 252.72407826 135.421875 257.76953125 C119.45048393 261.05849952 101.88104246 259.3965747 88.0703125 250.39453125 C81.72876101 245.68514957 75.46830976 240.67105456 71.6875 233.625 C71.6875 232.965 71.6875 232.305 71.6875 231.625 C68.32197113 234.88480545 65.3595637 238.23026075 62.5 241.9375 C49.97398166 257.28135827 33.10127854 265.23465254 13.6875 267.625 C-8.0178891 268.78380927 -32.12898846 265.0177669 -49.03515625 250.24609375 C-50.77299757 248.64827993 -52.4913688 247.02886116 -54.18359375 245.3828125 C-56.23791912 243.3066507 -56.23791912 243.3066507 -59.3125 243.625 C-60.7264811 244.90399507 -60.7264811 244.90399507 -62.125 246.625 C-65.45505305 250.11126023 -69.15080051 252.55907198 -73.3125 254.9375 C-74.18418823 255.44313477 -74.18418823 255.44313477 -75.07348633 255.95898438 C-84.49249163 261.19543825 -94.9072857 262.26645808 -105.4140625 259.9375 C-110.93544 258.07111887 -115.6229707 255.39538937 -120.33984375 251.9921875 C-122.26563476 250.65748086 -124.19465199 249.61996215 -126.3125 248.625 C-126.89644531 249.36943359 -126.89644531 249.36943359 -127.4921875 250.12890625 C-137.32965027 262.07439676 -150.90545274 269.10716673 -166.3125 270.625 C-183.57207993 271.97828431 -200.11982053 267.42129075 -213.6875 256.5 C-215.56981917 254.88348383 -217.44429189 253.25780387 -219.3125 251.625 C-220.448546 250.66952202 -221.58665983 249.71649859 -222.7265625 248.765625 C-230.31439814 242.40437877 -237.43722206 235.75283917 -244.3125 228.625 C-242.4375 223.875 -242.4375 223.875 -241.3125 221.625 C-241.97636719 221.3671875 -242.64023438 221.109375 -243.32421875 220.84375 C-245.58066072 219.92347563 -247.79926502 218.96981444 -250.01953125 217.96875 C-250.68919922 217.66839844 -251.35886719 217.36804688 -252.04882812 217.05859375 C-253.42320197 216.44057804 -254.79564028 215.81823822 -256.16601562 215.19140625 C-265.76274342 210.91190849 -276.02592491 208.55631455 -286.39453125 211.5 C-294.9635071 214.91411358 -302.78640513 219.77583956 -310.5703125 224.67578125 C-325.76253916 234.21132777 -340.41011972 240.63067332 -358.546875 236.97265625 C-373.73443474 231.9744904 -380.5550497 220.22038136 -387.5 206.75 C-387.91628662 205.91694336 -388.33257324 205.08388672 -388.76147461 204.22558594 C-389.16374268 203.4318457 -389.56601074 202.63810547 -389.98046875 201.8203125 C-390.33391357 201.10891113 -390.6873584 200.39750977 -391.05151367 199.66455078 C-394.04033141 194.83036232 -397.3213633 192.94257731 -402.609375 191.046875 C-403.81464844 190.60859375 -405.01992188 190.1703125 -406.26171875 189.71875 C-407.52855947 189.27058913 -408.79548769 188.82267553 -410.0625 188.375 C-411.34542335 187.91248686 -412.62798003 187.44895531 -413.91015625 186.984375 C-417.0408099 185.85451504 -420.17482373 184.7351766 -423.3125 183.625 C-422.3125 181.625 -422.3125 181.625 -419.74316406 180.66357422 C-416.68565315 179.78269282 -413.62819878 178.90291531 -410.56103516 178.05615234 C-408.60669529 177.51229867 -406.66120604 176.94273524 -404.71484375 176.37109375 C-392.03145338 172.83425455 -381.85707269 172.04212781 -369.75 177.5625 C-368.04112653 178.30254319 -366.33151828 179.04089254 -364.62109375 179.77734375 C-363.88689209 180.10726318 -363.15269043 180.43718262 -362.39624023 180.77709961 C-354.61862129 183.94191163 -346.03264315 183.46692293 -338.25390625 180.55859375 C-335.60946475 179.28692067 -333.50756595 177.55399735 -331.3125 175.625 C-330.6525 175.625 -329.9925 175.625 -329.3125 175.625 C-329.08949219 175.11324219 -328.86648438 174.60148438 -328.63671875 174.07421875 C-326.77396832 170.62895467 -324.45870533 167.57675424 -322.125 164.4375 C-321.62959717 163.76912109 -321.13419434 163.10074219 -320.6237793 162.41210938 C-319.63633262 161.08286042 -318.64719607 159.75486489 -317.65625 158.42822266 C-316.53295743 156.92083913 -315.42128694 155.404804 -314.3125 153.88671875 C-305.90481553 142.61808609 -294.99246117 135.09009488 -280.83203125 132.87109375 C-269.25213557 131.74003417 -259.21815262 133.68684767 -248.3125 137.625 C-248.21710938 136.9546875 -248.12171875 136.284375 -248.0234375 135.59375 C-244.11920481 119.29036076 -232.37256649 105.40804296 -218.57421875 96.4921875 C-206.61544571 89.646327 -193.82917171 86.63009092 -180.3125 84.625 C-180.4775 83.75875 -180.6425 82.8925 -180.8125 82 C-183.65318345 60.80086981 -177.49003357 41.4937824 -165 24.4375 C-163.45579289 22.48538912 -161.89255467 20.54821079 -160.3125 18.625 C-159.88565918 18.09277832 -159.45881836 17.56055664 -159.01904297 17.01220703 C-149.89471309 5.639322 -140.08697233 -4.10089654 -127.3125 -11.375 C-126.42433594 -11.89835938 -125.53617187 -12.42171875 -124.62109375 -12.9609375 C-86.38902363 -33.91147384 -34.11041361 -24.86013195 0 0 Z " fill="#16495A" transform="translate(423.3125,23.375)"/>
<path d="M0 0 C1.9157461 1.51685102 3.81158687 3.05915516 5.6875 4.625 C6.19120117 5.03975586 6.69490234 5.45451172 7.21386719 5.88183594 C17.9678291 14.83112547 26.320418 25.0962075 30.6875 38.625 C31.12578125 38.17769531 31.5640625 37.73039062 32.015625 37.26953125 C42.48195337 27.29248246 56.06223794 24.10920483 70.19921875 24.375 C88.33232861 25.67457338 106.53105931 32.18637891 119.16015625 45.7109375 C127.26090679 55.86277321 129.89549507 65.70226203 128.6875 78.625 C127.84119798 81.71584217 126.81740537 84.57008322 125.5625 87.515625 C124.55978086 89.5522849 124.55978086 89.5522849 124.6875 91.625 C125.43773437 91.65078125 126.18796875 91.6765625 126.9609375 91.703125 C141.56169381 92.51223492 152.21879572 98.57349688 162.25 109.1875 C166.28555773 113.8560864 169.60132852 118.89263409 172.93969727 124.06518555 C179.0524533 133.6732133 179.0524533 133.6732133 187.6875 140.625 C187.6875 143.925 187.6875 147.225 187.6875 150.625 C176.84771988 147.49004201 171.22207209 139.30581044 165.25 130.3125 C156.75513961 117.56031153 148.74799505 106.70253833 133.6875 101.625 C126.52453702 100.26830635 120.85060299 101.9894214 114.20703125 104.66015625 C110.9386916 105.91175298 108.18069454 106.47635342 104.6875 106.625 C102.6875 104.625 102.6875 104.625 102.125 102.4375 C103.20052784 97.0598608 108.36257732 93.76504975 112.375 90.3125 C118.02356745 83.74794864 119.43325845 76.31732267 119.1328125 67.8046875 C117.95360272 59.3847159 113.25581007 52.82597704 106.6875 47.625 C93.11451533 38.14219085 76.30165126 32.83917939 59.6875 34.625 C50.12489736 36.55716971 43.2050006 39.98201327 36.4375 46.9375 C31.08381547 55.15922982 29.69681221 63.3399554 28.30078125 72.90625 C27.6875 76.625 27.6875 76.625 26.6875 77.625 C24.1875 77.75 24.1875 77.75 21.6875 77.625 C21.3575 77.295 21.0275 76.965 20.6875 76.625 C20.78434954 75.03791715 20.94426814 73.45473029 21.125 71.875 C22.76105671 53.41408981 23.26578946 38.70333238 11.29296875 23.60546875 C-6.67820759 3.04773629 -32.37563258 -9.54418672 -59.3125 -13.375 C-74.12044408 -14.17099634 -88.91699594 -14.15492377 -103.3125 -10.375 C-104.18777344 -10.18164062 -105.06304687 -9.98828125 -105.96484375 -9.7890625 C-118.57531682 -6.64155382 -129.84101785 0.98112308 -139.3125 9.625 C-140.00601562 10.24890625 -140.69953125 10.8728125 -141.4140625 11.515625 C-156.23907451 25.5728077 -171.16782081 47.13688158 -171.74389648 68.11816406 C-171.76813489 77.08055535 -170.55651197 83.58709854 -166.3125 91.625 C-165.78140625 92.77742188 -165.2503125 93.92984375 -164.703125 95.1171875 C-156.57050596 112.69642952 -144.23563715 124.1972198 -126.3125 131.625 C-119.18355834 134.08609318 -111.88387442 136.28617774 -104.3125 136.625 C-103.22324219 136.69976562 -102.13398438 136.77453125 -101.01171875 136.8515625 C-89.24480264 137.30095226 -78.59770831 134.77099314 -67.3125 131.625 C-66.44238281 131.39651367 -65.57226562 131.16802734 -64.67578125 130.93261719 C-54.5475742 128.14242521 -45.82835566 122.2005194 -40.4921875 112.96484375 C-39.90824219 111.80662109 -39.90824219 111.80662109 -39.3125 110.625 C-38.69761719 109.48224609 -38.69761719 109.48224609 -38.0703125 108.31640625 C-33.2050589 97.56251813 -33.4727962 83.3837892 -37.4375 72.375 C-41.72185079 62.96149686 -47.59942907 55.28842156 -57.37036133 51.24682617 C-60.6073627 50.21041605 -63.82507012 50.13767122 -67.1875 50.1875 C-67.88713867 50.19289795 -68.58677734 50.1982959 -69.30761719 50.20385742 C-77.02382836 50.43012092 -82.37680625 52.876445 -88.3125 57.625 C-88.9725 57.625 -89.6325 57.625 -90.3125 57.625 C-90.745625 58.5221875 -90.745625 58.5221875 -91.1875 59.4375 C-92.3125 61.625 -92.3125 61.625 -94.3125 64.625 C-94.6282994 66.80686947 -94.6282994 66.80686947 -94.5625 69.125 C-94.56765625 69.8984375 -94.5728125 70.671875 -94.578125 71.46875 C-94.43988062 73.92013844 -94.43988062 73.92013844 -92.3125 76.625 C-92.6875 79.3125 -92.6875 79.3125 -93.3125 81.625 C-94.9625 81.625 -96.6125 81.625 -98.3125 81.625 C-102.47801893 75.76723901 -103.48746214 70.76753298 -102.3125 63.625 C-101.09180798 60.53005962 -99.43644889 58.17049599 -97.3125 55.625 C-96.56806641 54.69880859 -96.56806641 54.69880859 -95.80859375 53.75390625 C-90.00323059 47.24910174 -81.13618764 42.92131918 -72.43359375 42.38671875 C-60.64063477 42.10226166 -52.47222073 42.89116342 -43.125 50.6875 C-32.82309801 60.60126126 -27.32820031 72.46115679 -26.89379883 86.75537109 C-26.81770999 96.85245827 -28.51021779 105.26807943 -32.3125 114.625 C-31.20068359 114.4084375 -31.20068359 114.4084375 -30.06640625 114.1875 C-8.65315004 110.41331531 14.10975549 111.8237205 32.5 124.375 C41.09145916 131.00093109 46.77563936 139.10347687 49.6875 149.625 C51.16578589 161.40905037 48.469664 172.87353038 41.6875 182.625 C34.31709738 192.0602625 25.48942747 199.68857596 13.5625 202.3125 C1.93638392 203.25009001 -6.66281151 203.19669342 -16.125 195.875 C-21.18857093 191.24612078 -23.75842149 185.13678211 -24.5859375 178.3984375 C-24.88055466 171.44093994 -23.27168498 166.36581821 -19.3125 160.625 C-15.26487461 156.252119 -11.08806262 152.87972982 -5.03515625 152.32421875 C-3.82730469 152.32035156 -2.61945313 152.31648437 -1.375 152.3125 C-0.16972656 152.29574219 1.03554688 152.27898437 2.27734375 152.26171875 C7.05988779 152.77119939 9.56675184 154.56483282 13 157.8125 C15.23840345 161.54317242 15.39411171 164.37671252 14.6875 168.625 C12.9286217 172.7907644 10.81760412 174.80007027 6.6875 176.625 C3.5 176.9375 3.5 176.9375 0.6875 176.625 C0.0275 175.965 -0.6325 175.305 -1.3125 174.625 C-0.9375 172 -0.9375 172 -0.3125 169.625 C3.1525 168.635 3.1525 168.635 6.6875 167.625 C6.6875 165.645 6.6875 163.665 6.6875 161.625 C2.47965225 159.52107613 -2.74198709 160.09924165 -7.3125 160.625 C-11.02074814 162.28904946 -12.92011117 165.04949639 -15.1875 168.375 C-17.20050658 174.19035235 -17.20812235 179.29873291 -14.625 184.9375 C-11.43042107 190.57565159 -7.45747028 192.88613551 -1.3125 194.625 C9.83885733 195.76127575 18.23455037 193.96389233 27.375 187.5625 C35.41349059 180.91829627 40.85952854 171.14919063 42 160.78515625 C42.37798959 151.60709641 40.37305595 143.551656 34.5625 136.3125 C23.8736337 125.16781851 8.35087678 120.81498191 -6.64111328 120.2890625 C-19.02003271 120.0784919 -32.72611799 121.72948604 -43.3125 128.625 C-44.14652344 129.1096875 -44.98054688 129.594375 -45.83984375 130.09375 C-57.52430419 137.5665606 -65.74448746 150.21632887 -69.5703125 163.453125 C-73.88773829 184.35315768 -68.67756003 205.39976945 -58.3125 223.625 C-56.78902437 225.90687248 -55.22377708 228.03161978 -53.46875 230.13671875 C-52.3125 231.625 -52.3125 231.625 -51.4375 234.1875 C-46.90713032 244.00330097 -32.74364343 249.87095484 -23.3125 253.625 C-3.26758452 260.07648518 16.75537111 259.76191035 35.9375 250.875 C51.18444915 242.79472602 61.32828943 230.01583633 68.6875 214.625 C67.97464844 214.2125 67.26179688 213.8 66.52734375 213.375 C58.43920283 208.49816671 50.89867022 202.88072593 47.6875 193.625 C47.46861917 190.6054394 47.50627513 187.64541446 47.6875 184.625 C50.0625 184 50.0625 184 52.6875 183.625 C54.97815959 185.91565959 55.04544815 186.77268889 55.5625 189.875 C56.67251834 195.08290561 58.17459693 198.90186647 62.73828125 202.03125 C73.56068829 208.28823827 84.86076265 209.32519047 97.07421875 206.97265625 C100.0683588 206.04123485 102.83937713 204.93591683 105.6875 203.625 C106.73164062 203.150625 107.77578125 202.67625 108.8515625 202.1875 C115.90088534 198.68807482 121.67809396 194.4631768 127.37475586 189.09350586 C128.91015625 187.6875 128.91015625 187.6875 131.6875 185.625 C134.05859375 185.8125 134.05859375 185.8125 135.6875 186.625 C136.0175 188.275 136.3475 189.925 136.6875 191.625 C119.94692464 206.752696 102.91943739 216.69133608 79.84375 215.80078125 C78.8021875 215.74277344 77.760625 215.68476563 76.6875 215.625 C77.9473856 226.02991729 82.26548093 233.31409695 90.33984375 239.98828125 C103.19866294 248.95308198 116.41939379 250.10203219 131.6875 248.625 C145.97136114 245.75979183 158.00803675 235.92703487 166.6875 224.625 C167.10322266 224.09068359 167.51894531 223.55636719 167.94726562 223.00585938 C170.9219937 219.05610662 173.24484594 215.38100241 174.6875 210.625 C173.74699528 207.10794979 172.27184563 204.63234147 170.3203125 201.5703125 C167.60675261 196.67551787 167.80431492 192.04698838 168.6875 186.625 C170.41507238 180.62395911 174.22763009 175.70845171 179.6875 172.625 C182.3275 171.965 184.9675 171.305 187.6875 170.625 C187.6875 186.795 187.6875 202.965 187.6875 219.625 C185.7075 219.295 183.7275 218.965 181.6875 218.625 C181.15382813 219.50800781 180.62015625 220.39101562 180.0703125 221.30078125 C169.39405199 238.63665959 155.88524125 252.72407826 135.421875 257.76953125 C119.45048393 261.05849952 101.88104246 259.3965747 88.0703125 250.39453125 C81.72876101 245.68514957 75.46830976 240.67105456 71.6875 233.625 C71.6875 232.965 71.6875 232.305 71.6875 231.625 C68.32197113 234.88480545 65.3595637 238.23026075 62.5 241.9375 C49.97398166 257.28135827 33.10127854 265.23465254 13.6875 267.625 C-8.0178891 268.78380927 -32.12898846 265.0177669 -49.03515625 250.24609375 C-50.77299757 248.64827993 -52.4913688 247.02886116 -54.18359375 245.3828125 C-56.23791912 243.3066507 -56.23791912 243.3066507 -59.3125 243.625 C-60.7264811 244.90399507 -60.7264811 244.90399507 -62.125 246.625 C-65.45505305 250.11126023 -69.15080051 252.55907198 -73.3125 254.9375 C-74.18418823 255.44313477 -74.18418823 255.44313477 -75.07348633 255.95898438 C-84.49249163 261.19543825 -94.9072857 262.26645808 -105.4140625 259.9375 C-110.93544 258.07111887 -115.6229707 255.39538937 -120.33984375 251.9921875 C-122.26563476 250.65748086 -124.19465199 249.61996215 -126.3125 248.625 C-126.89644531 249.36943359 -126.89644531 249.36943359 -127.4921875 250.12890625 C-137.32965027 262.07439676 -150.90545274 269.10716673 -166.3125 270.625 C-183.57207993 271.97828431 -200.11982053 267.42129075 -213.6875 256.5 C-215.56981917 254.88348383 -217.44429189 253.25780387 -219.3125 251.625 C-220.448546 250.66952202 -221.58665983 249.71649859 -222.7265625 248.765625 C-230.31439814 242.40437877 -237.43722206 235.75283917 -244.3125 228.625 C-242.4375 223.875 -242.4375 223.875 -241.3125 221.625 C-241.97636719 221.3671875 -242.64023438 221.109375 -243.32421875 220.84375 C-245.58066072 219.92347563 -247.79926502 218.96981444 -250.01953125 217.96875 C-250.68919922 217.66839844 -251.35886719 217.36804688 -252.04882812 217.05859375 C-253.42320197 216.44057804 -254.79564028 215.81823822 -256.16601562 215.19140625 C-265.76274342 210.91190849 -276.02592491 208.55631455 -286.39453125 211.5 C-294.9635071 214.91411358 -302.78640513 219.77583956 -310.5703125 224.67578125 C-325.76253916 234.21132777 -340.41011972 240.63067332 -358.546875 236.97265625 C-373.73443474 231.9744904 -380.5550497 220.22038136 -387.5 206.75 C-387.91628662 205.91694336 -388.33257324 205.08388672 -388.76147461 204.22558594 C-389.16374268 203.4318457 -389.56601074 202.63810547 -389.98046875 201.8203125 C-390.33391357 201.10891113 -390.6873584 200.39750977 -391.05151367 199.66455078 C-394.04033141 194.83036232 -397.3213633 192.94257731 -402.609375 191.046875 C-403.81464844 190.60859375 -405.01992188 190.1703125 -406.26171875 189.71875 C-407.52855947 189.27058913 -408.79548769 188.82267553 -410.0625 188.375 C-411.34542335 187.91248686 -412.62798003 187.44895531 -413.91015625 186.984375 C-417.0408099 185.85451504 -420.17482373 184.7351766 -423.3125 183.625 C-422.3125 181.625 -422.3125 181.625 -419.74316406 180.66357422 C-416.68565315 179.78269282 -413.62819878 178.90291531 -410.56103516 178.05615234 C-408.60669529 177.51229867 -406.66120604 176.94273524 -404.71484375 176.37109375 C-392.03145338 172.83425455 -381.85707269 172.04212781 -369.75 177.5625 C-368.04112653 178.30254319 -366.33151828 179.04089254 -364.62109375 179.77734375 C-363.88689209 180.10726318 -363.15269043 180.43718262 -362.39624023 180.77709961 C-354.61862129 183.94191163 -346.03264315 183.46692293 -338.25390625 180.55859375 C-335.60946475 179.28692067 -333.50756595 177.55399735 -331.3125 175.625 C-330.6525 175.625 -329.9925 175.625 -329.3125 175.625 C-329.08949219 175.11324219 -328.86648438 174.60148438 -328.63671875 174.07421875 C-326.77396832 170.62895467 -324.45870533 167.57675424 -322.125 164.4375 C-321.62959717 163.76912109 -321.13419434 163.10074219 -320.6237793 162.41210938 C-319.63633262 161.08286042 -318.64719607 159.75486489 -317.65625 158.42822266 C-316.53295743 156.92083913 -315.42128694 155.404804 -314.3125 153.88671875 C-305.90481553 142.61808609 -294.99246117 135.09009488 -280.83203125 132.87109375 C-269.25213557 131.74003417 -259.21815262 133.68684767 -248.3125 137.625 C-248.21710938 136.9546875 -248.12171875 136.284375 -248.0234375 135.59375 C-244.11920481 119.29036076 -232.37256649 105.40804296 -218.57421875 96.4921875 C-206.61544571 89.646327 -193.82917171 86.63009092 -180.3125 84.625 C-180.4775 83.75875 -180.6425 82.8925 -180.8125 82 C-183.65318345 60.80086981 -177.49003357 41.4937824 -165 24.4375 C-163.45579289 22.48538912 -161.89255467 20.54821079 -160.3125 18.625 C-159.88565918 18.09277832 -159.45881836 17.56055664 -159.01904297 17.01220703 C-149.89471309 5.639322 -140.08697233 -4.10089654 -127.3125 -11.375 C-126.42433594 -11.89835938 -125.53617187 -12.42171875 -124.62109375 -12.9609375 C-86.38902363 -33.91147384 -34.11041361 -24.86013195 0 0 Z M-225.81640625 114.16015625 C-236.2532844 126.15108732 -243.19143574 141.22228672 -242.71484375 157.29296875 C-241.40052732 168.17755046 -236.38074364 176.38114976 -228.3125 183.625 C-220.29161753 189.91123691 -212.44449622 190.9864424 -202.5 191 C-201.09911133 191.03673828 -201.09911133 191.03673828 -199.66992188 191.07421875 C-191.59463028 191.10784245 -184.61541121 189.43598826 -178.375 184.125 C-173.45363039 178.1597035 -171.86053526 174.29269207 -171.984375 166.48046875 C-172.51160318 161.8923283 -174.0337786 158.86704666 -177.3125 155.625 C-183.03922463 151.59762933 -188.35243481 149.58099022 -195.3125 150.625 C-199.0288754 152.51962275 -201.41179545 154.63534249 -203.9375 157.875 C-204.72125 158.7825 -205.505 159.69 -206.3125 160.625 C-207.6325 160.625 -208.9525 160.625 -210.3125 160.625 C-210.3125 156.77921965 -210.18378447 154.64285569 -207.640625 151.671875 C-201.59250393 146.26039826 -196.5275887 144.0037581 -188.359375 144.19140625 C-181.76183232 145.13028732 -175.6934533 147.92266327 -171.2578125 152.95703125 C-166.16316681 160.50149461 -165.41584415 166.49453667 -166.3125 175.625 C-167.59844982 179.24144373 -169.34698895 182.34485205 -171.3125 185.625 C-171.6425 186.615 -171.9725 187.605 -172.3125 188.625 C-174.06640625 189.65234375 -174.06640625 189.65234375 -176.3125 190.625 C-177.10527344 191.03878906 -177.89804688 191.45257813 -178.71484375 191.87890625 C-179.55144531 192.31074219 -180.38804687 192.74257812 -181.25 193.1875 C-182.08402344 193.62191406 -182.91804687 194.05632812 -183.77734375 194.50390625 C-194.02509395 199.03565403 -210.61288206 198.14187952 -221.03125 194.59765625 C-232.41447946 189.74419026 -239.89253588 182.86030555 -245.3125 171.625 C-247.50321482 165.81150775 -248.38426971 160.37878208 -248.625 154.1875 C-248.89512396 149.63038896 -248.89512396 149.63038896 -251.6875 146.0625 C-264.34244406 141.04416012 -276.36417261 139.61704396 -289.3125 144.625 C-300.53779625 149.74738669 -307.11523011 158.70414316 -313.8125 168.6875 C-320.79698765 179.07000974 -327.90395013 187.26458767 -340.17578125 191.2265625 C-352.52205165 193.52879208 -362.76300272 190.53155861 -373.98828125 185.40234375 C-380.55545995 182.48010634 -386.15916198 182.18252548 -393.3125 182.625 C-393.8075 183.615 -393.8075 183.615 -394.3125 184.625 C-393.466875 185.099375 -392.62125 185.57375 -391.75 186.0625 C-383.98911951 191.35153097 -380.19248136 199.60693274 -376.2253418 207.80493164 C-371.88951426 216.68796224 -367.10768656 223.27509224 -358.0859375 227.72265625 C-347.29889067 231.23224473 -336.18205429 228.84362439 -326.3515625 223.88671875 C-321.23682062 221.11196503 -316.38397678 217.93293523 -311.55371094 214.69433594 C-305.08034866 210.36776727 -298.40387904 206.84238494 -291.3125 203.625 C-290.51457031 203.24085938 -289.71664062 202.85671875 -288.89453125 202.4609375 C-273.37555215 197.43663867 -256.02813577 204.76871117 -242.3125 211.625 C-238.39844487 213.70318667 -234.5294448 215.85804107 -230.69091797 218.07250977 C-214.15713321 227.57060101 -196.43014183 233.10522241 -177.375 228.5 C-170.39510473 226.20240577 -163.31706939 223.07461285 -157.60546875 218.41796875 C-155.3125 216.625 -155.3125 216.625 -153 216.875 C-152.443125 217.1225 -151.88625 217.37 -151.3125 217.625 C-151.86946452 221.12484461 -152.85237806 222.4737673 -155.6875 224.5625 C-170.23921117 234.77965891 -188.50782848 238.01080736 -205.90625 235.00390625 C-213.59267202 233.02059782 -220.63991388 229.80290205 -227.71679688 226.26757812 C-231.81169458 224.18911152 -231.81169458 224.18911152 -236.3125 223.625 C-228.32807765 231.81923199 -220.35304516 239.59190509 -211.3125 246.625 C-210.54421875 247.26050781 -209.7759375 247.89601563 -208.984375 248.55078125 C-196.11234478 259.05993879 -182.72172566 262.80400932 -166.3125 261.625 C-148.62992905 258.96022003 -137.53550577 248.88570235 -126.3125 235.625 C-124.5 235.8125 -124.5 235.8125 -122.3125 236.625 C-121.29070712 238.27839562 -120.29350952 239.9470852 -119.3125 241.625 C-110.62297103 249.30444041 -103.12771833 252.15827172 -91.58984375 251.93359375 C-79.2645888 250.77305127 -70.45715958 242.24105467 -62.3125 233.625 C-62.82039063 232.70460938 -63.32828125 231.78421875 -63.8515625 230.8359375 C-76.08396124 208.45014073 -84.07980836 185.24634419 -77.3125 159.625 C-75.59449568 154.83167998 -73.4478242 150.24427276 -71.3125 145.625 C-70.9825 144.635 -70.6525 143.645 -70.3125 142.625 C-71.3025 142.769375 -72.2925 142.91375 -73.3125 143.0625 C-74.64485904 143.25680236 -75.97847677 143.44247317 -77.3125 143.625 C-78.49457031 143.79773438 -79.67664063 143.97046875 -80.89453125 144.1484375 C-104.52937757 147.06385727 -128.59176768 143.58492057 -148.3125 129.625 C-160.50833551 120.1047029 -168.35790242 108.81227983 -174.3125 94.625 C-193.78542445 94.21436119 -211.9706811 100.14162954 -225.81640625 114.16015625 Z " fill="#C7B88A" transform="translate(423.3125,23.375)"/>
<path d="M0 0 C1.9157461 1.51685102 3.81158687 3.05915516 5.6875 4.625 C6.19120117 5.03975586 6.69490234 5.45451172 7.21386719 5.88183594 C17.9678291 14.83112547 26.320418 25.0962075 30.6875 38.625 C31.12578125 38.17769531 31.5640625 37.73039062 32.015625 37.26953125 C42.48195337 27.29248246 56.06223794 24.10920483 70.19921875 24.375 C88.33232861 25.67457338 106.53105931 32.18637891 119.16015625 45.7109375 C127.26090679 55.86277321 129.89549507 65.70226203 128.6875 78.625 C127.84119798 81.71584217 126.81740537 84.57008322 125.5625 87.515625 C124.55978086 89.5522849 124.55978086 89.5522849 124.6875 91.625 C125.43773437 91.65078125 126.18796875 91.6765625 126.9609375 91.703125 C141.56169381 92.51223492 152.21879572 98.57349688 162.25 109.1875 C166.28555773 113.8560864 169.60132852 118.89263409 172.93969727 124.06518555 C179.0524533 133.6732133 179.0524533 133.6732133 187.6875 140.625 C187.6875 143.925 187.6875 147.225 187.6875 150.625 C176.84771988 147.49004201 171.22207209 139.30581044 165.25 130.3125 C156.75513961 117.56031153 148.74799505 106.70253833 133.6875 101.625 C126.52453702 100.26830635 120.85060299 101.9894214 114.20703125 104.66015625 C110.9386916 105.91175298 108.18069454 106.47635342 104.6875 106.625 C102.6875 104.625 102.6875 104.625 102.125 102.4375 C103.20052784 97.0598608 108.36257732 93.76504975 112.375 90.3125 C118.02356745 83.74794864 119.43325845 76.31732267 119.1328125 67.8046875 C117.95360272 59.3847159 113.25581007 52.82597704 106.6875 47.625 C93.11451533 38.14219085 76.30165126 32.83917939 59.6875 34.625 C50.12489736 36.55716971 43.2050006 39.98201327 36.4375 46.9375 C31.08381547 55.15922982 29.69681221 63.3399554 28.30078125 72.90625 C27.6875 76.625 27.6875 76.625 26.6875 77.625 C24.1875 77.75 24.1875 77.75 21.6875 77.625 C21.3575 77.295 21.0275 76.965 20.6875 76.625 C20.78434954 75.03791715 20.94426814 73.45473029 21.125 71.875 C22.76105671 53.41408981 23.26578946 38.70333238 11.29296875 23.60546875 C-6.67820759 3.04773629 -32.37563258 -9.54418672 -59.3125 -13.375 C-74.12044408 -14.17099634 -88.91699594 -14.15492377 -103.3125 -10.375 C-104.18777344 -10.18164062 -105.06304687 -9.98828125 -105.96484375 -9.7890625 C-118.57531682 -6.64155382 -129.84101785 0.98112308 -139.3125 9.625 C-140.00601563 10.24890625 -140.69953125 10.8728125 -141.4140625 11.515625 C-155.43219539 24.80771914 -170.91755348 46.16825655 -171.578125 66.09765625 C-171.58335112 67.62760411 -171.57807127 69.15762246 -171.5625 70.6875 C-171.57023438 71.45126953 -171.57796875 72.21503906 -171.5859375 73.00195312 C-171.56914294 77.91016185 -170.87063395 81.96914736 -169.3125 86.625 C-172.6125 86.625 -175.9125 86.625 -179.3125 86.625 C-184.31695616 68.48384643 -180.36487699 50.54132387 -171.5078125 34.3359375 C-168.2657437 28.70923038 -164.43012938 23.63689573 -160.3125 18.625 C-159.88565918 18.09277832 -159.45881836 17.56055664 -159.01904297 17.01220703 C-149.89471309 5.639322 -140.08697233 -4.10089654 -127.3125 -11.375 C-126.42433594 -11.89835938 -125.53617187 -12.42171875 -124.62109375 -12.9609375 C-86.38902363 -33.91147384 -34.11041361 -24.86013195 0 0 Z " fill="#D0C8A8" transform="translate(423.3125,23.375)"/>
<path d="M0 0 C11.34523973 7.35155639 18.967026 17.68932103 22.57421875 30.71875 C24.96293681 44.28325615 23.38682364 56.75619568 18.23046875 69.4453125 C19.34228516 69.22875 19.34228516 69.22875 20.4765625 69.0078125 C41.88981871 65.23362781 64.65272424 66.644033 83.04296875 79.1953125 C91.63442791 85.82124359 97.31860811 93.92378937 100.23046875 104.4453125 C101.70875464 116.22936287 99.01263275 127.69384288 92.23046875 137.4453125 C84.86006613 146.880575 76.03239622 154.50888846 64.10546875 157.1328125 C52.47935267 158.07040251 43.88015724 158.01700592 34.41796875 150.6953125 C29.35439782 146.06643328 26.78454726 139.95709461 25.95703125 133.21875 C25.66241409 126.26125244 27.27128377 121.18613071 31.23046875 115.4453125 C35.27809414 111.0724315 39.45490613 107.70004232 45.5078125 107.14453125 C46.71566406 107.14066406 47.92351562 107.13679688 49.16796875 107.1328125 C50.37324219 107.11605469 51.57851563 107.09929687 52.8203125 107.08203125 C57.60285654 107.59151189 60.10972059 109.38514532 63.54296875 112.6328125 C65.7813722 116.36348492 65.93708046 119.19702502 65.23046875 123.4453125 C63.47159045 127.6110769 61.36057287 129.62038277 57.23046875 131.4453125 C54.04296875 131.7578125 54.04296875 131.7578125 51.23046875 131.4453125 C50.57046875 130.7853125 49.91046875 130.1253125 49.23046875 129.4453125 C49.60546875 126.8203125 49.60546875 126.8203125 50.23046875 124.4453125 C53.69546875 123.4553125 53.69546875 123.4553125 57.23046875 122.4453125 C57.23046875 120.4653125 57.23046875 118.4853125 57.23046875 116.4453125 C53.022621 114.34138863 47.80098166 114.91955415 43.23046875 115.4453125 C39.52222061 117.10936196 37.62285758 119.86980889 35.35546875 123.1953125 C33.34246217 129.01066485 33.3348464 134.11904541 35.91796875 139.7578125 C39.11254768 145.39596409 43.08549847 147.70644801 49.23046875 149.4453125 C60.38182608 150.58158825 68.77751912 148.78420483 77.91796875 142.3828125 C85.95645934 135.73860877 91.40249729 125.96950313 92.54296875 115.60546875 C92.92095834 106.42740891 90.9160247 98.3719685 85.10546875 91.1328125 C74.41660245 79.98813101 58.89384553 75.63529441 43.90185547 75.109375 C29.44034779 74.8633787 15.19977894 77.46396654 3.41796875 86.2578125 C2.36609375 86.9796875 1.31421875 87.7015625 0.23046875 88.4453125 C-0.75953125 88.1153125 -1.74953125 87.7853125 -2.76953125 87.4453125 C-1.77953125 85.7953125 -0.78953125 84.1453125 0.23046875 82.4453125 C-0.75953125 81.9503125 -0.75953125 81.9503125 -1.76953125 81.4453125 C-1.06828125 80.7646875 -0.36703125 80.0840625 0.35546875 79.3828125 C11.36762343 68.27707011 15.67514913 57.89338597 15.66650391 42.15332031 C15.41210315 30.26823879 11.14560792 20.45240831 2.76171875 11.95703125 C-3.0356395 6.73015772 -8.98523074 4.8943072 -16.64453125 5.0078125 C-17.34416992 5.01321045 -18.04380859 5.0186084 -18.76464844 5.02416992 C-26.48085961 5.25043342 -31.8338375 7.6967575 -37.76953125 12.4453125 C-38.42953125 12.4453125 -39.08953125 12.4453125 -39.76953125 12.4453125 C-40.20265625 13.3425 -40.20265625 13.3425 -40.64453125 14.2578125 C-41.76953125 16.4453125 -41.76953125 16.4453125 -43.76953125 19.4453125 C-44.08533065 21.62718197 -44.08533065 21.62718197 -44.01953125 23.9453125 C-44.0246875 24.71875 -44.02984375 25.4921875 -44.03515625 26.2890625 C-43.89691187 28.74045094 -43.89691187 28.74045094 -41.76953125 31.4453125 C-42.14453125 34.1328125 -42.14453125 34.1328125 -42.76953125 36.4453125 C-44.41953125 36.4453125 -46.06953125 36.4453125 -47.76953125 36.4453125 C-51.93505018 30.58755151 -52.94449339 25.58784548 -51.76953125 18.4453125 C-50.54883923 15.35037212 -48.89348014 12.99080849 -46.76953125 10.4453125 C-46.27324219 9.82785156 -45.77695312 9.21039063 -45.265625 8.57421875 C-34.91101557 -3.02793399 -14.05874213 -6.92048236 0 0 Z " fill="#C7BB92" transform="translate(372.76953125,68.5546875)"/>
<path d="M0 0 C0 10.56 0 21.12 0 32 C-4.08580945 30.97854764 -4.64670574 30.71724717 -7.125 27.6875 C-7.62257813 27.09324219 -8.12015625 26.49898437 -8.6328125 25.88671875 C-12.54870455 20.48278772 -12.76883256 15.54931437 -12 9 C-9.46000412 3.73186041 -6.10702826 0 0 0 Z " fill="#194B5B" transform="translate(611,201)"/>
</svg>
